DVDSCR [ NO WATERMARKS, OR TEXTS]

GREETZ! AND HAVE FUN!
--- MiGeR ---



General 
Titel 				 : Stake Land
Year 				 : 2010
IMDB				 : http://www.imdb.com/title/tt1464580/
Rating				 : 6.9/10
Duration		 	 : 98 min
Genre				 : Horror
Director			 : Jim Mickle
Writers				 : Nick Damici, Jim Mickle
Stars				 : Connor Paolo, Nick Damici and Kelly McGillis

Martin was a normal teenage boy before the country 
collapsed in an empty pit of economic and political disaster. 
A vampire epidemic has swept across what is left of the nation\'s 
abandoned towns and cities, and it\'s up to Mister, a death dealing, 
rogue vampire hunter, to get Martin safely north to Canada, 
the continent\'s New Eden.

Source				 
Format                           : AVI
Format/Info                      : Audio Video Interleave
File size                        : 617 MiB
Overall bit rate                 : 877 Kbps

Video
ID                               : 0
Format                           : MPEG-4 Visual
Format profile                   : Simple@L3
Format settings, BVOP            : No
Format settings, QPel            : No
Format settings, GMC             : No warppoints
Format settings, Matrix          : Default (H.263)
Codec ID                         : XVID
Codec ID/Hint                    : XviD
Duration                         : 1h 38mn
Bit rate                         : 742 Kbps
Width                            : 672 pixels
Height                           : 288 pixels
Display aspect ratio             : 2.35:1
Frame rate                       : 25.000 fps
Color space                      : YUV
Chroma subsampling               : 4:2:0
Bit depth                        : 8 bits
Scan type                        : Progressive
Bits/(Pixel*Frame)               : 0.153
Stream size                      : 522 MiB (85%)
Writing library                  : ZJMedia MPEG Encoder

Audio
ID                               : 1
Format                           : MPEG Audio
Format version                   : Version 1
Format profile                   : Layer 3
Mode                             : Joint stereo
Mode extension                   : MS Stereo
Codec ID                         : 55
Codec ID/Hint                    : MP3
Duration                         : 1h 38mn
Bit rate mode                    : Constant
Bit rate                         : 128 Kbps
Channel(s)                       : 2 channels
Sampling rate                    : 44.1 KHz
Stream size                      : 90.1 MiB (15%)
Alignment                        : Split accross interleaves
Interleave, duration             : 1000 ms (25.00 video frames)
Interleave, preload duration     : 750 ms
